<svg xmlns="http://www.w3.org/2000/svg" viewBox="0 0 24 24" fill="#25D366">
  <path d="M12.031 0C5.388 0 0 5.388 0 12.031c0 2.128.552 4.195 1.6 6.015L.302 22.846l4.945-1.296A11.966 11.966 0 0012.031 24c6.643 0 12.031-5.388 12.031-12.031S18.674 0 12.031 0zm0 22.012c-1.802 0-3.564-.486-5.11-1.405l-.367-.217-3.797.995.996-3.7-.238-.378a9.982 9.982 0 01-1.53-5.344c0-5.545 4.512-10.057 10.046-10.057 5.534 0 10.046 4.512 10.046 10.057 0 5.545-4.512 10.057-10.046 10.057zm5.522-7.534c-.302-.151-1.787-.882-2.064-.983-.277-.101-.479-.151-.68.151-.201.302-.78 1.007-.957 1.209-.176.201-.353.227-.655.076-1.583-.755-2.732-1.393-3.8-2.923-.277-.393-.017-.554.126-.705.126-.135.302-.353.453-.529.151-.176.201-.302.302-.504.101-.201.05-.378-.025-.529-.076-.151-.68-1.637-.931-2.242-.244-.593-.493-.513-.68-.523h-.58c-.201 0-.529.076-.806.378-.277.302-1.057 1.032-1.057 2.518 0 1.486 1.083 2.923 1.234 3.125.151.201 2.128 3.249 5.155 4.558.72.312 1.282.498 1.721.638.724.231 1.384.198 1.905.12.583-.087 1.787-.73 2.039-1.435.252-.705.252-1.31.176-1.435-.076-.126-.277-.201-.58-.353z"/>
</svg>